<svg width="18" height="18" viewBox="0 0 18 18" fill="none" xmlns="http://www.w3.org/2000/svg">
<path d="M17.1 14.94C15.3095 13.9905 13.9361 13.4581 12.7135 13.254L12.84 13.08C12.9 13.02 12.93 12.93 12.9 12.84L12.6189 11.7154C13.3624 10.6643 13.8 9.35009 13.8 8.10001V6.9H14.1H14.7C14.88 6.9 15 6.78001 15 6.60002C15 6.42002 14.88 6.30003 14.7 6.30003H14.4V6.00005C14.4 3.63005 12.84 1.62005 10.5 0.960036V0.899989C10.5 0.419971 10.11 0 9.6 0H8.4C7.91998 0 7.50001 0.389983 7.50001 0.899989V0.96C5.16 1.62002 3.59999 3.63002 3.59999 6.00001V6.3H3.30001C3.12001 6.3 3.00002 6.41998 3.00002 6.59998C3.00002 6.77998 3.12001 6.89997 3.30001 6.89997H3.90001H4.2V8.09997C4.2 9.35006 4.63755 10.6642 5.38114 11.7154L5.09999 12.84C5.09999 12.9 5.09999 13.02 5.16 13.08L5.28653 13.254C4.06393 13.4581 2.6905 13.9905 0.899989 14.94C0.330008 15.21 0 15.78 0 16.41V17.7C0 17.88 0.119987 18 0.299984 18H7.50001H7.61999H10.38H10.5H17.7C17.88 18 18 17.88 18 17.7V16.41C18 15.81 17.64 15.24 17.1 14.94ZM8.82011 14.6623L9.00172 14.2537L9.4501 15.2402L9.74337 15.9H8.28004L8.82011 14.6623ZM8.05201 16.5H9.94574L10.1172 17.4H7.87201L8.05201 16.5ZM12.15 12.3L12.27 12.84L11.9635 13.2608C11.944 13.2768 11.9259 13.2961 11.91 13.32L10.6622 15.0478L10.2662 15.5914L9.45743 13.7717C10.4242 13.6538 11.2872 13.1685 11.9842 12.471C11.9919 12.4634 11.9997 12.4558 12.0074 12.4481C12.0092 12.4462 12.0111 12.4443 12.0129 12.4424C12.0591 12.396 12.1049 12.3487 12.15 12.3ZM11.7592 2.19418C11.7925 2.21634 11.8255 2.23886 11.8582 2.2618C12.2406 2.54678 12.5936 2.88061 12.87 3.24L11.49 3.50999L11.7592 2.19418ZM6.51002 3.50999L5.13001 3.24C5.40648 2.88057 5.7595 2.54674 6.14191 2.26177C6.17454 2.23886 6.20757 2.21634 6.24088 2.19418L6.51002 3.50999ZM4.2 6.00001C4.2 5.20171 4.40098 4.44859 4.76472 3.79043L6.84003 4.20003C6.87001 4.20003 6.87001 4.20003 6.90004 4.20003C6.99004 4.20003 7.05005 4.17005 7.14005 4.14002C7.23004 4.08001 7.26003 3.96002 7.23004 3.87003L6.81819 1.8656C7.03511 1.76123 7.26275 1.67159 7.50004 1.59789V2.40002C7.50004 2.58002 7.62003 2.7 7.80003 2.7C7.98002 2.7 8.10001 2.58002 8.10001 2.40002V1.20001V0.899989C8.10001 0.749979 8.22 0.600005 8.4 0.600005H9.6C9.75001 0.600005 9.89999 0.719991 9.89999 0.899989V1.19997V2.39998C9.89999 2.57998 10.02 2.69997 10.2 2.69997C10.38 2.69997 10.5 2.57998 10.5 2.39998V1.59789C10.7452 1.67402 10.9802 1.7671 11.2035 1.87593L10.8 3.84004C10.8 3.93004 10.83 4.05002 10.89 4.11003C10.95 4.17005 11.01 4.20003 11.1 4.20003C11.13 4.20003 11.13 4.20003 11.16 4.20003L13.2218 3.76594C13.5941 4.42989 13.8 5.19184 13.8 6.00001V6.3H13.5H4.50002H4.20003V6.00001H4.2ZM4.8 6.9H13.2V8.10001C13.2 9.40814 12.7513 10.5706 12.0775 11.4542L12.06 11.46C12.03 11.49 12 11.52 11.97 11.55C11.8191 11.7513 11.6598 11.9348 11.4933 12.1002C10.7869 12.7583 9.94438 13.1569 9.13253 13.1964C9.09168 13.1788 9.04586 13.17 9 13.17C8.95389 13.17 8.91232 13.1791 8.87505 13.1968C8.37809 13.174 7.86947 13.0165 7.38735 12.747C6.89893 12.4664 6.43946 12.0619 6.02996 11.55C5.99998 11.52 5.96995 11.49 5.93996 11.46L5.92245 11.4542C5.24871 10.5705 4.79997 9.4081 4.79997 8.10001V6.9H4.8ZM8.54257 13.7718L7.7338 15.5915L7.33784 15.0478L6.09001 13.3201C6.08047 13.3105 6.06989 13.301 6.05895 13.2917L5.73002 12.84L5.85 12.3C5.89068 12.3438 5.93192 12.3865 5.97356 12.4285C6.67783 13.1487 7.55619 13.6515 8.54257 13.7718ZM0.600005 16.41C0.600005 16.02 0.80999 15.66 1.17002 15.48C3.08227 14.4641 4.45884 13.9542 5.68509 13.8019L7.47534 16.2635L7.24806 17.4H0.600005V16.41ZM17.4 17.4H10.752L10.5247 16.2636L12.3344 13.7753C13.5563 13.9597 14.9575 14.4692 16.83 15.45C17.19 15.66 17.4 16.0201 17.4 16.41V17.4Z" fill="#808080"/>
</svg>
